<svg width="1016" height="268" viewBox="0 0 1016 268" fill="none" xmlns="http://www.w3.org/2000/svg">
<g clip-path="url(#clip0_2125_2)">
<mask id="mask0_2125_2" style="mask-type:luminance" maskUnits="userSpaceOnUse" x="931" y="33" width="57" height="57">
<path d="M988.001 33H931.508V89.4324H988.001V33Z" fill="white"/>
</mask>
<g mask="url(#mask0_2125_2)">
<path d="M959.744 86.1864C973.55 86.1864 984.743 75.0064 984.743 61.215C984.743 47.4237 973.55 36.2437 959.744 36.2437C945.939 36.2437 934.746 47.4237 934.746 61.215C934.746 75.0064 945.939 86.1864 959.744 86.1864Z" stroke="#021930" stroke-width="2.4"/>
<path d="M958.24 58.9601C959.793 58.9601 960.923 58.6497 961.601 58.0571C962.279 57.4928 962.646 56.5335 962.646 55.1792C962.646 53.853 962.279 52.9219 961.601 52.3293C960.923 51.765 959.793 51.4828 958.24 51.4828H955.076V58.9601H958.24ZM955.076 64.1236V75.128H947.562V46.0371H959.031C962.872 46.0371 965.669 46.6861 967.448 47.984C969.256 49.2538 970.132 51.2853 970.132 54.0787C970.132 55.9974 969.68 57.5775 968.748 58.819C967.815 60.0323 966.431 60.9634 964.539 61.5277C965.584 61.7817 966.488 62.3178 967.307 63.1361C968.126 63.9543 968.945 65.1958 969.764 66.8888L973.86 75.128H965.866L962.307 67.9046C961.601 66.4656 960.867 65.4498 960.132 64.9419C959.398 64.4058 958.409 64.1236 957.195 64.1236H955.076Z" fill="#021930"/>
</g>
<path d="M813.734 89.707H891.429C896.989 89.707 902.21 90.7905 907.092 92.9578C911.974 94.9896 916.176 97.834 919.702 101.491C923.362 105.148 926.211 109.415 928.244 114.291C930.415 119.167 931.5 124.382 931.5 129.936V201.657H907.092V174.837H798.072V201.657H773.664V129.936C773.664 124.382 774.681 119.167 776.715 114.291C778.885 109.415 781.733 105.148 785.259 101.491C788.92 97.834 793.19 94.9896 798.072 92.9578C802.954 90.7905 808.175 89.707 813.734 89.707ZM798.072 150.253H907.092V129.936C907.092 125.601 905.532 121.944 902.413 118.964C899.43 115.849 895.77 114.291 891.429 114.291H813.734C809.394 114.291 805.665 115.849 802.546 118.964C799.564 121.944 798.072 125.601 798.072 129.936V150.253Z" fill="#021930"/>
<path d="M721.113 177.275C725.452 177.275 729.114 175.785 732.097 172.805C735.216 169.69 736.774 165.965 736.774 161.631V90.3164H761.181V161.631C761.181 167.184 760.099 172.399 757.928 177.275C755.895 182.151 753.046 186.418 749.386 190.075C745.86 193.597 741.656 196.441 736.774 198.609C731.894 200.64 726.673 201.656 721.113 201.656H675.961V177.275H721.113Z" fill="#021930"/>
<path d="M532.458 201.656C524.727 201.656 517.473 200.234 510.694 197.39C504.048 194.41 498.151 190.414 492.998 185.402C487.981 180.255 483.981 174.363 480.998 167.726C478.15 160.954 476.727 153.707 476.727 145.986C476.727 138.266 478.15 131.019 480.998 124.247C483.981 117.474 487.981 111.582 492.998 106.57C498.151 101.559 504.048 97.6308 510.694 94.7861C517.473 91.8062 524.727 90.3164 532.458 90.3164H615.644C623.375 90.3164 630.629 91.8062 637.408 94.7861C644.188 97.6308 650.087 101.559 655.103 106.57C660.255 111.582 664.257 117.474 667.105 124.247C670.088 131.019 671.58 138.266 671.58 145.986C671.58 153.707 670.088 160.954 667.105 167.726C664.257 174.363 660.255 180.255 655.103 185.402C650.087 190.414 644.188 194.41 637.408 197.39C630.629 200.234 623.375 201.656 615.644 201.656H532.458ZM615.644 177.275C619.985 177.275 624.052 176.463 627.849 174.837C631.646 173.212 634.967 170.977 637.816 168.132C640.664 165.288 642.9 161.969 644.527 158.177C646.156 154.384 646.968 150.321 646.968 145.986C646.968 141.652 646.156 137.588 644.527 133.796C642.9 130.003 640.664 126.685 637.816 123.84C634.967 120.996 631.646 118.761 627.849 117.135C624.052 115.51 619.985 114.697 615.644 114.697H532.458C528.117 114.697 524.05 115.51 520.253 117.135C516.456 118.761 513.135 120.996 510.286 123.84C507.438 126.685 505.202 130.003 503.575 133.796C501.946 137.588 501.134 141.652 501.134 145.986C501.134 150.321 501.946 154.384 503.575 158.177C505.202 161.969 507.438 165.288 510.286 168.132C513.135 170.977 516.456 173.212 520.253 174.837C524.05 176.463 528.117 177.275 532.458 177.275H615.644Z" fill="#021930"/>
<path d="M263 201.656V103.319C263 99.6622 264.017 96.4792 266.051 93.7702C268.085 91.0612 270.526 89.1648 273.373 88.0813C276.356 86.9978 279.475 86.7944 282.729 87.4718C286.119 88.0136 289.035 89.7068 291.475 92.5512L364.494 176.666L437.513 92.5512C439.954 89.7068 442.801 88.0136 446.055 87.4718C449.445 86.7944 452.564 86.9978 455.411 88.0813C458.395 89.1648 460.903 91.0612 462.937 93.7702C464.971 96.4792 465.988 99.6622 465.988 103.319V201.656H441.784V124.247L376.698 199.218C375.071 201.114 373.172 202.537 371.003 203.485C368.833 204.433 366.596 204.907 364.291 204.907C362.121 204.907 359.952 204.433 357.782 203.485C355.748 202.537 353.918 201.114 352.29 199.218L287.204 124.247V201.656H263Z" fill="#021930"/>
</g>
<mask id="mask1_2125_2" style="mask-type:alpha" maskUnits="userSpaceOnUse" x="41" y="55" width="172" height="171">
<path d="M126.517 226C79.2868 226 41 187.721 41 140.5C41 93.2795 79.2868 55 126.517 55C173.748 55 212.035 93.2795 212.035 140.5C212.035 187.721 173.748 226 126.517 226Z" fill="#0AD158"/>
</mask>
<g mask="url(#mask1_2125_2)">
<path d="M79.0731 159.634V169.186C79.0731 195.639 85.4157 221.192 97.3667 244.121L99.533 248.139L116.222 238.838C105.14 218.962 98.9363 196.709 98.2433 173.54L98.1791 169.186V159.634H79.0731ZM136.393 130.98H117.285V169.186L117.338 172.803C118.098 199.267 127.18 224.325 143.045 244.908L145.251 247.688L160.047 235.6C145.557 217.866 137.212 195.945 136.45 172.684L136.393 169.186V130.98ZM126.838 92.7749C100.458 92.7749 79.0731 114.156 79.0731 140.532H98.1791C98.1791 124.706 111.01 111.878 126.838 111.878C142.668 111.878 155.499 124.706 155.499 140.532V169.186C155.499 190.537 163.329 210.68 177.194 226.271L179.216 228.467L193.05 215.293C181.933 203.624 175.362 188.402 174.667 172.077L174.605 169.186V140.532C174.605 114.156 153.22 92.7749 126.838 92.7749ZM126.838 54.5698C79.3546 54.5698 40.8594 93.0562 40.8594 140.532V169.186C40.8594 185.402 42.7871 201.373 46.5605 216.85L47.886 221.991L66.3221 216.974C62.5861 203.247 60.4695 189.061 60.0455 174.614L59.9654 169.186V140.532C59.9654 103.606 89.9071 73.6725 126.838 73.6725C141.861 73.6725 155.725 78.624 166.889 86.9836L180.502 73.3638C165.793 61.6026 147.138 54.5698 126.838 54.5698ZM194.021 86.8803L180.399 100.49C188.33 111.08 193.196 124.101 193.673 138.233L193.718 140.522L193.679 159.634C193.679 170.327 196.2 180.671 200.949 189.98L202.441 192.743L219.035 183.272C215.411 176.925 213.291 169.836 212.865 162.427L212.785 159.634L212.787 140.532C212.819 120.237 205.785 101.585 194.021 86.8803Z" fill="#0AD158"/>
</g>
<defs>
<clipPath id="clip0_2125_2">
<rect width="725" height="174" fill="white" transform="translate(263 33)"/>
</clipPath>
</defs>
</svg>
